<svg xmlns="http://www.w3.org/2000/svg" viewBox="0 0 512.04 504.29"><defs><style>.cls-1{fill:#f7a914;}.cls-2{fill:#f29219;}</style></defs><g id="Calque_2" data-name="Calque 2"><g id="Calque_1-2" data-name="Calque 1"><path class="cls-1" d="M504,360.35v79.93l-72,56V416.35Z"/><path class="cls-2" d="M432,416.66v79.93l-72-56V360.66h.08Z"/><path class="cls-1" d="M328,118.66V144l-72,56V120l72-56Z"/><path class="cls-2" d="M328,64l-72,56L184,64,256,8Z"/><path class="cls-1" d="M152,439.93v.33L80,496.2V416.36l72-55.94Z"/><path class="cls-2" d="M79.72,416.35l-71.92-56L73,309.56v-.1l6.72-5.18,72.08,56.07Z"/><path class="cls-2" d="M248,199.76V120.25a8.15,8.15,0,0,1,6.83-8.16A8,8,0,0,1,264,120v80a8,8,0,0,1-9.17,7.92A8.15,8.15,0,0,1,248,199.76Z"/><path class="cls-2" d="M256.05,208a8,8,0,0,1-4.92-14.31l72-56A8,8,0,1,1,333,150.3l-72,56A7.91,7.91,0,0,1,256.05,208Z"/><path class="cls-2" d="M256,208a7.93,7.93,0,0,1-4.9-1.68l-72-56a8,8,0,1,1,9.82-12.62l72,56A8,8,0,0,1,256,208Z"/><path class="cls-2" d="M256.05,128a8,8,0,0,1-4.92-14.31l72-56A8,8,0,0,1,333,70.32l-72,56A7.86,7.86,0,0,1,256.05,128Z"/><path class="cls-2" d="M256,128a7.88,7.88,0,0,1-4.9-1.69l-72-56a8,8,0,0,1,9.82-12.63l72,56A8,8,0,0,1,256,128Z"/><path class="cls-2" d="M184,72a8,8,0,0,1-4.92-14.31l72-56A8,8,0,0,1,261,14.32l-72,56A7.86,7.86,0,0,1,184,72Z"/><path class="cls-2" d="M328.07,72a7.89,7.89,0,0,1-4.91-1.69l-72-56A8,8,0,0,1,261,1.69l72,56A8,8,0,0,1,328.07,72Z"/><path class="cls-2" d="M176,143.73V64.26a8.15,8.15,0,0,1,6.83-8.16A8,8,0,0,1,192,64v80a8,8,0,0,1-9.17,7.93A8.16,8.16,0,0,1,176,143.73Z"/><path class="cls-2" d="M320,143.74V64.25a8.15,8.15,0,0,1,6.83-8.16A8,8,0,0,1,336,64v80a8,8,0,0,1-9.17,7.91A8.15,8.15,0,0,1,320,143.74Z"/><path class="cls-2" d="M424,496V416.53a8.15,8.15,0,0,1,6.83-8.16,8,8,0,0,1,9.17,7.92v80a8,8,0,0,1-9.17,7.92A8.16,8.16,0,0,1,424,496Z"/><path class="cls-2" d="M432,504.29A8,8,0,0,1,427.09,490l72-56A8,8,0,1,1,509,446.59l-72,56a7.92,7.92,0,0,1-4.9,1.69Z"/><path class="cls-2" d="M432,504.29a7.88,7.88,0,0,1-4.9-1.69l-72-56A8,8,0,0,1,364.88,434l72,56A8,8,0,0,1,432,504.29Z"/><path class="cls-2" d="M432,424.32A8,8,0,0,1,427.09,410l72-56A8,8,0,1,1,509,366.61l-72,56a7.92,7.92,0,0,1-4.9,1.69Z"/><path class="cls-2" d="M432,424.32a7.94,7.94,0,0,1-4.9-1.69l-72-56A8,8,0,0,1,364.88,354l72,56A8,8,0,0,1,432,424.32Z"/><path class="cls-2" d="M360,368.31A8,8,0,0,1,355.06,354l72-56a8,8,0,0,1,9.82,12.62l-72,56a7.92,7.92,0,0,1-4.9,1.69Z"/><path class="cls-2" d="M504,368.32a8,8,0,0,1-4.91-1.69l-72-56A8,8,0,0,1,436.91,298l72,56A8,8,0,0,1,504,368.32Z"/><path class="cls-2" d="M352,440V360.55a8.15,8.15,0,0,1,6.83-8.16,8,8,0,0,1,9.17,7.92v80a8,8,0,0,1-9.17,7.91A8.15,8.15,0,0,1,352,440Z"/><path class="cls-2" d="M496,440V360.55a8.15,8.15,0,0,1,6.83-8.16,8,8,0,0,1,9.17,7.92v80a8,8,0,0,1-9.17,7.91A8.15,8.15,0,0,1,496,440Z"/><path class="cls-2" d="M72,496V416.53a8.15,8.15,0,0,1,6.83-8.16A8,8,0,0,1,88,416.29v80a8,8,0,0,1-9.17,7.92A8.16,8.16,0,0,1,72,496Z"/><path class="cls-2" d="M80.09,504.29A8,8,0,0,1,75.17,490l72-56A8,8,0,0,1,157,446.59l-72,56a7.92,7.92,0,0,1-4.9,1.69Z"/><path class="cls-2" d="M80.07,504.29a7.88,7.88,0,0,1-4.9-1.69l-72-56A8,8,0,0,1,13,434l72,56a8,8,0,0,1-4.92,14.31Z"/><path class="cls-2" d="M80.09,424.32A8,8,0,0,1,75.17,410l72-56A8,8,0,1,1,157,366.61l-72,56a7.92,7.92,0,0,1-4.9,1.69Z"/><path class="cls-2" d="M80.07,424.32a7.94,7.94,0,0,1-4.9-1.69l-72-56A8,8,0,0,1,13,354l72,56a8,8,0,0,1-4.92,14.32Z"/><path class="cls-2" d="M8.06,368.31A8,8,0,0,1,3.14,354l72-56A8,8,0,1,1,85,310.6l-72,56a7.92,7.92,0,0,1-4.9,1.69Z"/><path class="cls-2" d="M152.11,368.32a8,8,0,0,1-4.91-1.69l-72-56A8,8,0,0,1,85,298l72,56a8,8,0,0,1-4.92,14.32Z"/><path class="cls-2" d="M0,440V360.55a8.15,8.15,0,0,1,6.83-8.16A8,8,0,0,1,16,360.31v80a8,8,0,0,1-9.17,7.91A8.15,8.15,0,0,1,0,440Z"/><path class="cls-2" d="M144,440V360.55a8.15,8.15,0,0,1,6.83-8.16,8,8,0,0,1,9.17,7.92v80a8,8,0,0,1-9.17,7.91A8.15,8.15,0,0,1,144,440Z"/><path class="cls-2" d="M256,480a191,191,0,0,1-108.52-33.61,8,8,0,1,1,9-13.19,176,176,0,0,0,198.66.18,8,8,0,0,1,9,13.21A191,191,0,0,1,256,480Z"/><path class="cls-2" d="M438.79,317.57a7.25,7.25,0,0,1-.93-.05,8,8,0,0,1-7-8.88A176.17,176.17,0,0,0,324.9,126a8,8,0,1,1,6.27-14.72A191.8,191.8,0,0,1,448,288a195.89,195.89,0,0,1-1.31,22.46,8,8,0,0,1-7.94,7.07Z"/><path class="cls-2" d="M73.28,317.57a8,8,0,0,1-7.93-7.07A192.16,192.16,0,0,1,180.87,111.32,8,8,0,1,1,187.15,126,175.83,175.83,0,0,0,80,288a178.4,178.4,0,0,0,1.19,20.6,8,8,0,0,1-7,8.87,5.94,5.94,0,0,1-.94.06Z"/></g></g></svg>