<svg xmlns="http://www.w3.org/2000/svg" viewBox="0 0 447.67 323"><defs><style>.cls-1{fill:#f7aa13;}.cls-1,.cls-2{fill-rule:evenodd;}.cls-2{fill:#f29219;}</style></defs><g id="Calque_2" data-name="Calque 2"><g id="Calque_1-2" data-name="Calque 1"><g id="Icon_Observability" data-name="Icon Observability"><g id="Group-8"><path id="Fill-1" class="cls-1" d="M17,300.33H425V56.67H17ZM28.77,16.64a11,11,0,1,1-11,11,11,11,0,0,1,11-11Zm33.61,0a11,11,0,1,1-11,11,11,11,0,0,1,11-11Zm33.61,0a11,11,0,1,1-11,11,11,11,0,0,1,11-11ZM437.15,0H10.46A10.46,10.46,0,0,0,0,10.46V312.54A10.46,10.46,0,0,0,10.46,323H437.21a10.46,10.46,0,0,0,10.46-10.46v-302A10.53,10.53,0,0,0,437.15,0Z"/><path id="Fill-3" class="cls-2" d="M383.38,141.67A60.38,60.38,0,1,1,323,81.29v60.38Z"/><path id="Fill-4" class="cls-1" d="M79.33,272H54.92a9.58,9.58,0,0,1-9.59-9.58V219.24a9.57,9.57,0,0,1,9.58-9.57H81.09a9.57,9.57,0,0,1,9.58,9.57v42.91A9.8,9.8,0,0,1,80.94,272"/><path id="Fill-5" class="cls-1" d="M255,255V241.09a14.43,14.43,0,0,1,14.43-14.42H376.57A14.43,14.43,0,0,1,391,241.1v16.47A14.43,14.43,0,0,1,376.57,272H269.27A14.47,14.47,0,0,1,255,257.34"/><path id="Fill-6" class="cls-2" d="M136,272H113.42A11.42,11.42,0,0,1,102,260.58V198.41A11.41,11.41,0,0,1,113.41,187h22.51a11.41,11.41,0,0,1,11.41,11.42v62.3A11.43,11.43,0,0,1,135.73,272"/><path id="Fill-7" class="cls-1" d="M198.33,272H178a13.64,13.64,0,0,1-13.64-13.63V161A13.64,13.64,0,0,1,178,147.33H196A13.63,13.63,0,0,1,209.67,161v97.19A13.85,13.85,0,0,1,195.82,272"/></g></g></g></g></svg>