<svg xmlns="http://www.w3.org/2000/svg" xmlns:xlink="http://www.w3.org/1999/xlink" viewBox="0 0 387.6 396.83"><defs><style>.cls-1{fill:#fff;}.cls-1,.cls-3,.cls-5{fill-rule:evenodd;}.cls-2{mask:url(#mask);}.cls-3{fill:#f7aa13;}.cls-4{mask:url(#mask-2-2);}.cls-5{fill:#f29219;}.cls-6{mask:url(#mask-3);}</style><mask id="mask" x="0" y="108.16" width="247.06" height="232.97" maskUnits="userSpaceOnUse"><g id="mask-2"><polygon id="path-1" class="cls-1" points="0 108.16 247.06 108.16 247.06 341.13 0 341.13 0 108.16"/></g></mask><mask id="mask-2-2" x="221.49" y="0" width="166.11" height="156.88" maskUnits="userSpaceOnUse"><g id="mask-4"><polygon id="path-3" class="cls-1" points="221.49 0 387.6 0 387.6 156.88 221.49 156.88 221.49 0"/></g></mask><mask id="mask-3" x="235.33" y="286.08" width="115.36" height="110.74" maskUnits="userSpaceOnUse"><g id="mask-6"><polygon id="path-5" class="cls-1" points="235.33 286.08 350.69 286.08 350.69 396.82 235.33 396.82 235.33 286.08"/></g></mask></defs><g id="Calque_2" data-name="Calque 2"><g id="Calque_1-2" data-name="Calque 1"><g id="Icon_Collaborative-Security" data-name="Icon Collaborative-Security"><g id="Group-8"><g class="cls-2"><path id="Fill-6" class="cls-3" d="M123.53,108.16c68.22,0,123.53,53.89,123.53,120.36,0,51.48-33.19,95.42-79.84,112.61-1.33-12.29-2.67-25.08-4-37.19-2.46-20.31-4.89-38.14-6.9-48.25.11-.92.22-1.85.32-2.77a12.33,12.33,0,0,0,12-10,10.84,10.84,0,0,0,.21-1.9l.37,0a7.78,7.78,0,0,0,8.23-7.25,7.62,7.62,0,0,0-3.45-6.74,12.07,12.07,0,0,0-3.15-23.1,7.47,7.47,0,0,0,1.66-4.7,7.72,7.72,0,0,0-7.66-7.64,12.7,12.7,0,0,0,5-4.32c2.92-4.47,3.38-24.63-7-37.59-4.26-5.34-8.45-2.12-8.72,1.52-.81,11.16-.91,19.54-3.87,29.08a7.79,7.79,0,0,0-7.72-6.42,7.89,7.89,0,0,0-6.15,2.92,12.48,12.48,0,0,0-24.6,0,7.88,7.88,0,0,0-13.9,3.46c-3-9.54-3-17.92-3.87-29.08-.26-3.64-4.45-6.86-8.72-1.52-10.37,13-9.9,33.12-7,37.59a12.63,12.63,0,0,0,5,4.32,7.73,7.73,0,0,0-7.67,7.64,7.47,7.47,0,0,0,1.66,4.7,12.07,12.07,0,0,0-3.14,23.1,7.61,7.61,0,0,0-3.46,6.74A7.78,7.78,0,0,0,79,241.06l.36,0,.06.92.14.91a12.33,12.33,0,0,0,12.26,10.07L91.56,254c-2.68,12.08-6.4,39.41-9.88,68.51L81,328.2l-.66,5.68-.62,5.37-.18,1.63-.66-.46c0,.11,0,.22,0,.33C32.7,323.3,0,279.63,0,228.52c0-66.47,55.31-120.36,123.53-120.36m5.65,103.64c7.72-2.77,15.7-3.07,23.75-2.38,4.28.36,8.51,1.25,12.85,1.92,0,2.53,0,4.65,0,6.76,0,.47-.22,1.21-.57,1.36-1.76.73-2,2.24-2.36,3.71-.74,2.63-1.55,5.22-2.46,7.79-1.23,3.49-3.79,5.51-7.65,6.28a37.12,37.12,0,0,1-16-.16,10.94,10.94,0,0,1-3.22-1.27c1.36,5,2.3,10.18,3.63,15.3a76,76,0,0,1,2.21,13c.53,6.41-3.58,12-8.91,12.5l-.81,0H116.17l-.81,0c-5.33-.52-9.44-6.09-8.91-12.5a77,77,0,0,1,2.2-13c1.36-5.2,2.35-10.39,3.74-15.48a14.21,14.21,0,0,1-7.62,2.2,81.26,81.26,0,0,1-12.07-.74,8.25,8.25,0,0,1-7-5.58c-1-2.8-1.74-5.71-2.79-8.51a23.06,23.06,0,0,0-2.1-3.45,3.6,3.6,0,0,1-.73-1.48c-.08-2,0-4.1,0-6.38,8.13-2.38,16.3-2.82,24.63-2.43A48.86,48.86,0,0,1,117.13,212a18.5,18.5,0,0,0,12.05-.17m3.62,24.42a21.38,21.38,0,0,1-19.8,0c.9,4.7,4,8.35,7.89,9.31a77.31,77.31,0,0,0,.28,8.22c.3,3.32.44,6.64,1,9.72.42,2.29,1,2.2,1.44,0,.56-3.09.71-6.4,1-9.72a77.31,77.31,0,0,0,.28-8.22c3.9-1,7-4.61,7.89-9.31"/></g></g><g id="Group-8-Copy"><g class="cls-4"><path id="Fill-6-2" data-name="Fill-6" class="cls-5" d="M304.54,0c45.87,0,83.06,36.29,83.06,81.05,0,34.67-22.31,64.26-53.68,75.83-.9-8.27-1.8-16.88-2.71-25-1.66-13.68-3.3-25.69-4.65-32.49.08-.62.15-1.25.22-1.87a8.28,8.28,0,0,0,8.08-6.73,7.71,7.71,0,0,0,.14-1.28l.25,0a5.22,5.22,0,0,0,5.53-4.88,5.12,5.12,0,0,0-2.31-4.53,8.14,8.14,0,0,0-2.12-15.56,5,5,0,0,0,1.11-3.17,5.19,5.19,0,0,0-5.15-5.14,8.59,8.59,0,0,0,3.39-2.91c2-3,2.27-16.59-4.7-25.31-2.87-3.6-5.69-1.43-5.87,1-.54,7.51-.61,13.16-2.6,19.59a5.24,5.24,0,0,0-5.19-4.33,5.3,5.3,0,0,0-4.14,2,8.38,8.38,0,0,0-16.53,0,5.31,5.31,0,0,0-4.15-2,5.24,5.24,0,0,0-5.2,4.33c-2-6.43-2.06-12.08-2.6-19.59-.18-2.45-3-4.62-5.87-1-7,8.72-6.66,22.3-4.69,25.31a8.5,8.5,0,0,0,3.38,2.91,5.19,5.19,0,0,0-5.15,5.14,5.11,5.11,0,0,0,1.11,3.17,8.13,8.13,0,0,0-2.11,15.56,5.1,5.1,0,0,0-2.32,4.53,5.22,5.22,0,0,0,5.53,4.88l.25,0,0,.62.09.61a8.3,8.3,0,0,0,8.24,6.79l-.17.75c-1.81,8.13-4.3,26.54-6.65,46.13l-.45,3.81-.44,3.82-.42,3.62-.12,1.09-.45-.3,0,.22c-31-11.75-53-41.16-53-75.58,0-44.76,37.18-81,83.05-81m3.8,66.85a37.14,37.14,0,0,1,16-1.6c2.88.24,5.73.84,8.64,1.29,0,1.71,0,3.13,0,4.56,0,.31-.15.81-.38.91-1.19.49-1.31,1.51-1.59,2.5-.5,1.77-1,3.52-1.65,5.25A6.31,6.31,0,0,1,324.17,84a25,25,0,0,1-10.75-.12,7.56,7.56,0,0,1-2.17-.85c.92,3.39,1.55,6.85,2.45,10.31a51.11,51.11,0,0,1,1.48,8.72c.36,4.32-2.4,8.07-6,8.42l-.54,0h-9l-.55,0c-3.58-.35-6.34-4.1-6-8.42a51.11,51.11,0,0,1,1.48-8.72c.91-3.51,1.58-7,2.52-10.43a9.61,9.61,0,0,1-5.13,1.48,53.91,53.91,0,0,1-8.12-.5,5.53,5.53,0,0,1-4.71-3.75c-.7-1.89-1.18-3.85-1.88-5.73a15.22,15.22,0,0,0-1.41-2.33,2.42,2.42,0,0,1-.49-1c-.06-1.38,0-2.77,0-4.3a48.51,48.51,0,0,1,15.55-1.68A37.47,37.47,0,0,1,300.41,67a12.38,12.38,0,0,0,7.93-.17m2.44,19.39a14.4,14.4,0,0,1-13.31,0c.6,3.16,2.68,5.62,5.3,6.26A53.49,53.49,0,0,0,303,98c.2,2.24.29,4.48.67,6.55.29,1.54.72,1.48,1,0,.37-2.09.47-4.31.67-6.55a48.45,48.45,0,0,0,.19-5.54c2.62-.64,4.7-3.1,5.31-6.26"/></g></g><g id="Group-8-Copy-2"><g class="cls-6"><path id="Fill-6-3" data-name="Fill-6" class="cls-5" d="M293,286.08c31.85,0,57.68,25.62,57.68,57.22a57.27,57.27,0,0,1-37.28,53.53c-.62-5.85-1.25-11.93-1.89-17.68-1.15-9.66-2.28-18.13-3.22-22.94l.15-1.32a5.77,5.77,0,0,0,5.61-4.75,5.28,5.28,0,0,0,.1-.9l.17,0a3.64,3.64,0,0,0,2.24-6.65,5.77,5.77,0,0,0-1.47-11,3.63,3.63,0,0,0-2.81-5.87,5.93,5.93,0,0,0,2.35-2.05c1.37-2.13,1.58-11.71-3.26-17.87-2-2.54-3.95-1-4.07.72-.38,5.3-.43,9.29-1.81,13.83a3.66,3.66,0,0,0-6.48-1.67,5.8,5.8,0,0,0-11.48,0,3.65,3.65,0,0,0-6.49,1.65c-1.38-4.54-1.43-8.53-1.81-13.83-.12-1.73-2.08-3.26-4.07-.72-4.84,6.16-4.63,15.74-3.26,17.87a5.93,5.93,0,0,0,2.35,2.05,3.63,3.63,0,0,0-2.81,5.87,5.76,5.76,0,0,0-1.47,11,3.63,3.63,0,0,0,2.24,6.65l.17,0,0,.44.07.43a5.79,5.79,0,0,0,5.72,4.79l-.12.53c-1.25,5.74-3,18.73-4.61,32.56l-.32,2.69-.31,2.7-.28,2.55-.09.77-.31-.21c0,.05,0,.1,0,.16a57.26,57.26,0,0,1-36.81-53.35c0-31.6,25.82-57.22,57.68-57.22m2.64,47.39a25.3,25.3,0,0,1,11.09-1.13c2,.17,4,.59,6,.91,0,1.21,0,2.21,0,3.22,0,.22-.1.57-.26.64-.83.35-.91,1.07-1.11,1.77-.34,1.24-.72,2.48-1.14,3.7a4.42,4.42,0,0,1-3.57,3,17.11,17.11,0,0,1-7.47-.08,5.14,5.14,0,0,1-1.5-.61c.63,2.4,1.07,4.84,1.7,7.28a37.2,37.2,0,0,1,1,6.16c.24,3.05-1.67,5.7-4.17,5.94l-.37,0h-6.29l-.38,0c-2.49-.24-4.4-2.89-4.16-5.94a37.2,37.2,0,0,1,1-6.16c.64-2.47,1.1-4.94,1.75-7.36a6.67,6.67,0,0,1-3.56,1.05,36.76,36.76,0,0,1-5.64-.36,4,4,0,0,1-3.25-2.58c-.5-1.35-.83-2.76-1.33-4.11a9.87,9.87,0,0,0-1-1.64,1.85,1.85,0,0,1-.34-.71c0-1,0-1.95,0-3a31.34,31.34,0,0,1,8.67-1.21,25.83,25.83,0,0,1,8.54,1.31,8.51,8.51,0,0,0,5.74,0M297.34,347a9.88,9.88,0,0,1-9.25,0,5.39,5.39,0,0,0,3.69,4.42,33.91,33.91,0,0,0,.13,3.91c.14,1.58.2,3.16.47,4.62.19,1.09.49,1,.67,0,.26-1.47.33-3,.47-4.62a36.31,36.31,0,0,0,.13-3.91,5.4,5.4,0,0,0,3.69-4.42"/></g></g></g></g></g></svg>