<svg xmlns="http://www.w3.org/2000/svg" viewBox="0 0 503.32 511.35"><defs><style>.cls-1{fill:#f7a914;}.cls-2{fill:#f29219;}</style></defs><g id="Calque_2" data-name="Calque 2"><g id="Calque_1-2" data-name="Calque 1"><path class="cls-1" d="M483.92,449.47a130.16,130.16,0,0,1-179.13,42.41A94.09,94.09,0,0,0,262.17,477c-3.46-.25-7-.37-10.48-.37-3.72,0-7.38.15-11,.47a94.16,94.16,0,0,0-42,14.75A130.15,130.15,0,0,1,.87,366.31C7,310.66,60.17,257.75,115.81,251.77A135.73,135.73,0,0,1,130.2,251h243a135.31,135.31,0,0,1,14.36.77c55.64,6,108.77,58.88,114.94,114.49A130.06,130.06,0,0,1,483.92,449.47Z"/><path class="cls-2" d="M483.92,449.47a130.16,130.16,0,0,1-179.13,42.41A94.09,94.09,0,0,0,262.17,477c-3.46-.25-7-.37-10.48-.37-3.72,0-7.38.15-11,.47a94.16,94.16,0,0,0-42,14.75,130.26,130.26,0,0,1-26.77,12.62c41.9-38,73.27-86.22,99.14-136.49,19.64-38.15,36.35-77.72,53.73-117h48.36a135.31,135.31,0,0,1,14.36.77c55.64,6,108.77,58.88,114.94,114.49A130.06,130.06,0,0,1,483.92,449.47Z"/><rect class="cls-2" x="234" y="217" width="35" height="35"/><path class="cls-2" d="M260,217H243V190.31A17.31,17.31,0,0,0,225.69,173H183.45c-20.26,0-36.58-16.58-35.25-36.8A34.5,34.5,0,0,1,182.62,104H320.8c7.86,0,15.87-6.24,17.38-14A17.51,17.51,0,0,0,321,69H277.71A34.71,34.71,0,0,1,243,34.29V0h17V34.69A17.3,17.3,0,0,0,277.3,52h42.24c20.26,0,36.58,16.58,35.26,36.8A34.51,34.51,0,0,1,320.37,121H182.57c-7.86,0-15.87,6.24-17.38,13.95A17.51,17.51,0,0,0,182.34,156h42.95A34.71,34.71,0,0,1,260,190.71V217Z"/><circle class="cls-1" cx="312.43" cy="381.41" r="26.03"/><circle class="cls-1" cx="373.17" cy="329.34" r="26.03"/><circle class="cls-1" cx="373.17" cy="433.47" r="26.03"/><circle class="cls-1" cx="433.96" cy="381.41" r="26.03"/><polygon class="cls-2" points="113 321 148 321 148 364 191 364 191 399 148 399 148 442 113 442 113 399 70 399 70 364 113 364 113 321"/></g></g></svg>