<svg xmlns="http://www.w3.org/2000/svg" viewBox="0 0 481.64 483"><defs><style>.cls-1{fill:#f7a914;}.cls-2{fill:#f29219;}</style></defs><g id="Calque_2" data-name="Calque 2"><g id="Calque_1-2" data-name="Calque 1"><path class="cls-1" d="M339.89,198.66v57.56a99.21,99.21,0,0,0-55.81,28.12H28.25V198.66Z"/><path class="cls-1" d="M274.92,414.52v40.23H28.25V368.13h227.5A98.91,98.91,0,0,0,274.92,414.52Z"/><path class="cls-2" d="M368.13,227.75V201.09a30.67,30.67,0,0,0-30.67-30.67,42.81,42.81,0,0,0,1.8-6.87,42.21,42.21,0,0,0-1.8-21.38,30.66,30.66,0,0,0,30.67-30.68V29.42A29.42,29.42,0,0,0,338.71,0H34.7A34.71,34.71,0,0,0,0,34.7v82.5a25,25,0,0,0,25,25h5.7a42.43,42.43,0,0,0,0,28.25A30.66,30.66,0,0,0,0,201.09v80.82a30.67,30.67,0,0,0,30.67,30.67,42.78,42.78,0,0,0-2.42,14.13,42.34,42.34,0,0,0,2.42,14.12A30.66,30.66,0,0,0,0,371.51v81.26A30.22,30.22,0,0,0,30.23,483H354.49c70.16-.26,127.15-57.58,127.15-128C481.64,289.18,431.89,234.82,368.13,227.75ZM28.25,113.92V28.25H339.89v85.67Zm269.58,56.5H70.61a14.13,14.13,0,0,1,0-28.25H297.45a14.37,14.37,0,0,1,14.41,12.48A14.14,14.14,0,0,1,297.83,170.42ZM28.25,284.34V198.66H339.89V227.8a127.64,127.64,0,0,0-92.17,56.54Zm28.34,40.73A14.37,14.37,0,0,1,71,312.58H233.83a126.43,126.43,0,0,0-6.45,28.25H70.61A14.12,14.12,0,0,1,56.59,325.07ZM28.25,454.75V369.08H228.11a128.08,128.08,0,0,0,46.81,85.43c.1.08.2.17.3.24Zm329.38-.67a99.49,99.49,0,0,1-17.74-197.86,95.07,95.07,0,0,1,11.14-1,99.49,99.49,0,0,1,6.6,198.87Z"/><path class="cls-1" d="M411.77,319.47l-7.8,3.29c-22-37.31-76.52-37.56-98.58.79-6.59,11.56,10.89,21.76,17.6,10,13.3-23.43,46.69-25,62.08-2.82l-6.6,2.79a4.52,4.52,0,0,0-1,7.76l28.85,21.79a4.51,4.51,0,0,0,7.2-3.05L418,324.18A4.51,4.51,0,0,0,411.77,319.47Z"/><path class="cls-1" d="M387.68,376c-13.75,23.14-46.84,24-61.76,2.25l6.6-2.79a4.52,4.52,0,0,0,1-7.76l-28.84-21.79a4.51,4.51,0,0,0-7.2,3L293,384.78a4.51,4.51,0,0,0,6.23,4.72c8.21-3.47,6.39-2.76,7.88-3.15,22.08,37.29,76,36.88,98-.06C411.91,374.79,394.52,364.45,387.68,376Z"/><rect class="cls-1" x="28.25" y="28.25" width="311.64" height="85.68"/></g></g></svg>