<svg width="30" height="29" viewBox="0 0 30 29" fill="none" xmlns="http://www.w3.org/2000/svg">
<path d="M22.7344 6.44565C22.5565 6.09188 22.4121 5.72232 22.3031 5.34178C22.1711 4.89978 22.0863 4.44511 22.05 3.98533C21.7688 3.88242 21.4875 3.79823 21.1969 3.71404C16.8622 2.41494 12.2277 2.50985 7.95 3.98533C7.95 3.98533 7.71562 9.05565 2.85938 9.05565C3.08401 13.2769 4.47611 17.3535 6.88125 20.8334C7.24534 21.3734 7.63646 21.8949 8.05312 22.3956C8.26875 22.6576 8.49375 22.9195 8.7375 23.1815C10.5325 25.1516 12.6502 26.8029 15 28.0647C18.497 26.208 21.4555 23.4835 23.5902 20.1539C25.7249 16.8243 26.9639 13.002 27.1875 9.05565C26.2684 9.11743 25.3519 8.90146 24.5576 8.4359C23.7632 7.97034 23.1279 7.27679 22.7344 6.44565V6.44565Z" fill="#D8D7FF"/>
<path d="M15.0001 25.6885C12.9421 24.4458 11.11 22.8643 9.58135 21.011C8.19769 19.3055 7.09339 17.3922 6.30947 15.342C5.74127 13.8783 5.33572 12.3569 5.1001 10.8049C5.95053 10.5475 6.7397 10.1204 7.41977 9.54956C8.09983 8.9787 8.65661 8.27596 9.05635 7.48395C9.36756 6.89078 9.60675 6.26269 9.76885 5.61298C13.1916 4.66481 16.8086 4.66481 20.2313 5.61298C20.3964 6.2631 20.6388 6.89121 20.9532 7.48395C21.3487 8.27726 21.903 8.98124 22.5819 9.55243C23.2607 10.1236 24.0497 10.5499 24.9001 10.8049C24.6534 12.4061 24.2289 13.9749 23.6345 15.4823C22.8468 17.5155 21.7391 19.4103 20.3532 21.0952C18.8383 22.9138 17.0289 24.4663 15.0001 25.6885V25.6885Z" fill="#5443B3"/>
<path d="M18.8062 13.1904C18.8907 13.2507 18.959 13.3309 19.0048 13.424C19.0506 13.5171 19.0725 13.62 19.0687 13.7236C19.0652 13.8015 19.046 13.8779 19.0122 13.9482C18.9784 14.0185 18.9308 14.0813 18.8722 14.1328C18.8135 14.1843 18.7451 14.2235 18.6709 14.248C18.5968 14.2726 18.5184 14.2819 18.4406 14.2756C18.4509 14.3281 18.4509 14.3821 18.4406 14.4346C18.4026 14.6542 18.2873 14.8531 18.1154 14.9955C17.9436 15.1378 17.7264 15.2143 17.5031 15.211C17.6718 15.9126 17.8687 17.4281 18.0749 19.2056C18.0749 19.3833 18.0749 19.5517 18.1312 19.7388C17.1423 20.1505 16.0808 20.3604 15.0093 20.3562C13.9367 20.3619 12.8744 20.1486 11.8874 19.7294C12.1218 17.7556 12.3749 15.9875 12.5624 15.211C12.3377 15.2139 12.1195 15.1362 11.9474 14.9919C11.7753 14.8477 11.6609 14.6466 11.6249 14.4252V14.341C11.5192 14.326 11.4175 14.2901 11.3258 14.2355C11.234 14.1809 11.1541 14.1087 11.0906 14.023C11.0033 13.8908 10.9711 13.7299 11.0009 13.5744C11.0307 13.4189 11.12 13.2812 11.2499 13.1904C11.0617 13.1111 10.9047 12.9726 10.8026 12.7959C10.7005 12.6193 10.6591 12.4143 10.6846 12.212C10.71 12.0097 10.801 11.8213 10.9437 11.6754C11.0864 11.5294 11.2729 11.434 11.4749 11.4036C11.3945 11.296 11.3546 11.1635 11.3624 11.0294C11.3585 10.953 11.3705 10.8766 11.3977 10.8051C11.4249 10.7336 11.4668 10.6685 11.5205 10.6139C11.5743 10.5594 11.6389 10.5166 11.7101 10.4883C11.7813 10.46 11.8577 10.4467 11.9343 10.4494C11.784 10.3648 11.6555 10.2463 11.5593 10.1033C11.4133 9.60649 11.3848 9.08269 11.4759 8.57302C11.567 8.06335 11.7752 7.58169 12.0843 7.16587C12.4218 6.74491 12.7312 6.99749 12.7406 7.29684C12.7499 8.05761 12.8506 8.81453 13.0406 9.55136C13.0738 9.40107 13.1563 9.26611 13.2749 9.16781C13.4003 9.07636 13.5563 9.03697 13.7101 9.0579C13.864 9.07884 14.0037 9.15847 14.0999 9.28007C14.0999 9.03196 14.1987 8.79402 14.3745 8.61858C14.5503 8.44314 14.7888 8.34458 15.0374 8.34458C15.2861 8.34458 15.5245 8.44314 15.7003 8.61858C15.8762 8.79402 15.9749 9.03196 15.9749 9.28007C16.0164 9.22088 16.0692 9.17053 16.1304 9.13198C16.1916 9.09342 16.2598 9.06744 16.3312 9.05555C16.49 9.03092 16.6521 9.06888 16.7833 9.16141C16.9146 9.25395 17.0046 9.39379 17.0343 9.55136C17.2119 8.81242 17.3093 8.05657 17.3249 7.29684C17.3249 6.99749 17.6624 6.74491 17.9906 7.16587C18.2872 7.58782 18.4886 8.06894 18.5808 8.57606C18.6731 9.08318 18.654 9.60424 18.5249 10.1033C18.4324 10.246 18.2982 10.357 18.1406 10.4214C18.2436 10.4333 18.3419 10.4713 18.4261 10.5317C18.5103 10.5922 18.5777 10.673 18.6218 10.7667C18.6659 10.8604 18.6854 10.9638 18.6783 11.067C18.6711 11.1703 18.6377 11.2701 18.5812 11.3568C18.785 11.3828 18.9747 11.4748 19.121 11.6188C19.2673 11.7629 19.3621 11.9508 19.3909 12.1539C19.4196 12.3569 19.3807 12.5638 19.2802 12.7426C19.1796 12.9214 19.023 13.0623 18.8343 13.1436L18.8062 13.1904Z" fill="#FFB30D"/>
</svg>
