<svg xmlns="http://www.w3.org/2000/svg" viewBox="0 0 411.94 386.3"><defs><style>.cls-1{fill:#f7a914;}.cls-2{fill:#f29219;}</style></defs><g id="Calque_2" data-name="Calque 2"><g id="Calque_1-2" data-name="Calque 1"><path class="cls-1" d="M307.19,385.19A8.56,8.56,0,0,1,303,386.3a8.46,8.46,0,0,1-2.3-.32,8.58,8.58,0,0,1-5.15-4L232.18,269.71A8.59,8.59,0,0,1,235.43,258a60.07,60.07,0,1,0-58.84,0,8.58,8.58,0,0,1,3.24,11.69l-63.5,112.23a8.57,8.57,0,0,1-5.15,4,8.44,8.44,0,0,1-6.52-.81A205.88,205.88,0,0,1,0,205.84C0,93.5,90,2.2,201.82.05c1.36,0,2.73,0,4.1,0A205.89,205.89,0,0,1,385.33,104.71C441.21,203.74,406.22,329.32,307.19,385.19Z"/><path class="cls-2" d="M307.19,385.19A8.56,8.56,0,0,1,303,386.3a8.46,8.46,0,0,1-2.3-.32,8.58,8.58,0,0,1-5.15-4L232.18,269.71A8.59,8.59,0,0,1,235.43,258,60.08,60.08,0,0,0,203.91,145.6q-1-72.78-2.09-145.55c1.36,0,2.73,0,4.1,0A205.89,205.89,0,0,1,385.33,104.71C441.21,203.74,406.22,329.32,307.19,385.19Z"/></g></g></svg>