<svg xmlns="http://www.w3.org/2000/svg" viewBox="0 0 30 29"><defs><style>.cls-1{fill:#5443b3;}.cls-2{fill:#d8d7ff;}.cls-3{fill:#ffb30d;}.cls-4{fill:#ff8500;}.cls-5{fill:#353f49;}.cls-6{fill:#fff;}</style></defs><g id="evils"><path class="cls-1" d="M15.41,6V1.84a.39.39,0,0,0-.34-.4.39.39,0,0,0-.44.39V6a.39.39,0,0,0,.44.39A.39.39,0,0,0,15.41,6Z"/><circle class="cls-1" cx="15" cy="1.37" r="0.75"/><path class="cls-1" d="M28.8,16.45c-.06-1.77-.1-3-1-3.92a4,4,0,0,0-2.54-1,12.57,12.57,0,0,1,1.28,5.58v2.47a10.87,10.87,0,0,1-.15,1.81,3.34,3.34,0,0,0,1.7-1c.86-.94.82-2.13.76-3.94Z"/><path class="cls-1" d="M3.51,19.54V17.07a12.57,12.57,0,0,1,1.28-5.58,3.9,3.9,0,0,0-2.54,1c-.94.93-1,2.15-1,3.92s-.1,3,.76,3.94a3.34,3.34,0,0,0,1.7,1,10.87,10.87,0,0,1-.15-1.81Z"/><path class="cls-2" d="M26.92,17.51v2.56c0,4.69-2.87,7-6.94,7.89a21.24,21.24,0,0,1-4.41.42H14.45A21.24,21.24,0,0,1,10,28h0C6,27.09,3.11,24.76,3.1,20.07V17.51C3,11,8.26,4.68,15,4.68S27,11,26.92,17.51Z"/><path class="cls-1" d="M23.5,18.64A13.07,13.07,0,0,1,20,28a21.24,21.24,0,0,1-4.41.42H14.45A21.24,21.24,0,0,1,10,28h0A13.07,13.07,0,0,1,6.5,18.64c0-6.35,3.81-11.5,8.5-11.5S23.5,12.29,23.5,18.64Z"/><circle class="cls-3" cx="15" cy="17.95" r="5.69"/><path class="cls-4" d="M18.88,18A3.88,3.88,0,1,1,15,14.07,3.88,3.88,0,0,1,18.88,18Z"/><path class="cls-5" d="M16.91,18A1.91,1.91,0,1,1,15,16,1.92,1.92,0,0,1,16.91,18Z"/><path class="cls-6" d="M14.61,16.6a1,1,0,1,1-1.91,0,1,1,0,0,1,1.91,0Z"/></g></svg>