<svg xmlns="http://www.w3.org/2000/svg" viewBox="0 0 909.87 240"><defs><style>.cls-1{fill:#ff6c2c;}</style></defs><title>cPanelAsset 11@1x</title><g id="Layer_2" data-name="Layer 2"><g id="Layer_1-2" data-name="Layer 1"><path class="cls-1" d="M365.1,14.4,321.9,174.6a89.88,89.88,0,0,1-12,26.55,84.94,84.94,0,0,1-19.35,20.7A89.91,89.91,0,0,1,265.5,235.2a87,87,0,0,1-28.8,4.8H0L60.3,13.5a17.11,17.11,0,0,1,6.45-9.75A18.14,18.14,0,0,1,78,0h32.1a11,11,0,0,1,9.15,4.5,10.75,10.75,0,0,1,2,9.9L76.5,181.2h60.9l45-167.7a17.11,17.11,0,0,1,6.45-9.75A17.71,17.71,0,0,1,199.8,0h32.4a10.57,10.57,0,0,1,9,4.5,11,11,0,0,1,1.8,9.9L198.3,181.2h36.6a31.31,31.31,0,0,0,19.35-6.45A30,30,0,0,0,265.5,157.8L304.2,13.5a17.11,17.11,0,0,1,6.45-9.75A18.14,18.14,0,0,1,321.9,0H354a11,11,0,0,1,9.15,4.5A10.75,10.75,0,0,1,365.1,14.4Z"/><path class="cls-1" d="M406.8,149.4l-20.7,77.1a17.15,17.15,0,0,1-6.45,9.75A18.14,18.14,0,0,1,368.4,240H336.3a10.67,10.67,0,0,1-8.85-4.5,10.27,10.27,0,0,1-1.95-9.6L382.2,13.5a17.11,17.11,0,0,1,6.45-9.75A18.14,18.14,0,0,1,399.9,0h46.5L422.7,90.6h75l20.7-77.1a17.06,17.06,0,0,1,6.45-9.75A17.69,17.69,0,0,1,535.8,0h47.1L522,226.5a17.11,17.11,0,0,1-6.45,9.75A17.71,17.71,0,0,1,504.6,240H472.2a10.57,10.57,0,0,1-9-4.5,10.42,10.42,0,0,1-1.8-9.6l20.4-76.5Z"/><path class="cls-1" d="M539.7,225.6,600.3,0H789.9A85.46,85.46,0,0,1,830,9.45,89.07,89.07,0,0,1,876.59,70.2a84.5,84.5,0,0,1-1.19,41.1L844.5,226.5a17.2,17.2,0,0,1-6.45,9.75A18.14,18.14,0,0,1,826.8,240H794.7a10.94,10.94,0,0,1-9.15-4.5,10.72,10.72,0,0,1-2-9.9L816.3,104.4a37,37,0,0,0-6.46-31.35A37.35,37.35,0,0,0,797.55,62.7a34.36,34.36,0,0,0-16.35-3.9H767.4l-45,167.7a17.15,17.15,0,0,1-6.45,9.75A17.73,17.73,0,0,1,705,240H672.59a10.57,10.57,0,0,1-9-4.5,10.94,10.94,0,0,1-1.79-9.9L706.5,58.8H645.59l-45,167.7a17.09,17.09,0,0,1-6.44,9.75A18.19,18.19,0,0,1,582.9,240H550.8a10.94,10.94,0,0,1-9.15-4.5A10.69,10.69,0,0,1,539.7,225.6Z"/><path class="cls-1" d="M868.58,22.66a20.3,20.3,0,0,1,2.75-10.29A20.6,20.6,0,0,1,889.23,2a20.61,20.61,0,0,1,20.64,20.64,20.58,20.58,0,0,1-10.13,17.77,20.68,20.68,0,0,1-28.48-7.58A20.37,20.37,0,0,1,868.58,22.66Zm2.88,0a17.76,17.76,0,0,0,8.91,15.39,17.45,17.45,0,0,0,8.86,2.38A17.27,17.27,0,0,0,898.09,38a17.84,17.84,0,0,0,6.5-6.47,17.21,17.21,0,0,0,2.4-8.91,17.27,17.27,0,0,0-2.39-8.86,17.89,17.89,0,0,0-6.46-6.5,17.7,17.7,0,0,0-17.78,0,17.87,17.87,0,0,0-6.49,6.46A17.17,17.17,0,0,0,871.46,22.66Zm26.14-5a6.64,6.64,0,0,1-1.17,3.88,6.79,6.79,0,0,1-3.28,2.51l6.54,10.85h-4.62l-5.68-9.72h-3.71v9.72h-4.06V10.45h7.17c3,0,5.26.59,6.68,1.78A6.69,6.69,0,0,1,897.6,17.67Zm-11.92,4.14h3a5.26,5.26,0,0,0,3.53-1.14,3.63,3.63,0,0,0,1.33-2.89,3.44,3.44,0,0,0-1.18-3,6.2,6.2,0,0,0-3.74-.9h-2.91Z"/></g></g></svg>