<?xml version="1.0" encoding="UTF-8"?>
<svg id="cvfy" x="652px" y="152px" width="600" height="119.8" version="1.1" viewBox="0 250 600 119.8" xml:space="preserve" xmlns="http://www.w3.org/2000/svg" xmlns:cc="http://creativecommons.org/ns#" xmlns:dc="http://purl.org/dc/elements/1.1/" xmlns:rdf="http://www.w3.org/1999/02/22-rdf-syntax-ns#" xmlns:xlink="http://www.w3.org/1999/xlink"><title>OPNsense logo</title><metadata><rdf:RDF><cc:Work rdf:about=""><dc:format>image/svg+xml</dc:format><dc:type rdf:resource="http://purl.org/dc/dcmitype/StillImage"/><dc:title>OPNsense logo</dc:title></cc:Work></rdf:RDF></metadata>
<title>OPNsense logo</title>
<style type="text/css">
	.st0{clip-path:url(#cvfb);fill:#898B8D;}
	.st1{clip-path:url(#cvfb);fill:url(#cvfj);}
	.st2{clip-path:url(#cvfb);fill:url(#cvfi);}
	.st3{fill:#403F41;}
	.st4{clip-path:url(#cvfa);fill:#898B8D;}
	.st5{clip-path:url(#cvfa);fill:url(#cvfh);}
	.st6{clip-path:url(#cvfa);fill:url(#cvfg);}
	.st7{clip-path:url(#cvff);fill:#58595B;}
	.st8{clip-path:url(#cvff);fill:url(#cvfr);}
	.st9{clip-path:url(#cvfe);fill:#58595B;}
	.st10{clip-path:url(#cvfe);fill:url(#cvfq);}
	.st11{clip-path:url(#cvfd);fill:#58595B;}
	.st12{clip-path:url(#cvfd);fill:url(#cvfp);}
	.st13{clip-path:url(#cvfc);fill:#58595B;}
	.st14{clip-path:url(#cvfc);fill:url(#cvfo);}
	.st15{fill:url(#cvfn);}
	.st16{fill:url(#cvfm);}
	.st17{fill:url(#cvfl);}
	.st18{fill:url(#cvfk);}
	.st19{fill:#E24525;}
	.st20{fill:#808183;}
</style>
<g transform="matrix(.9957 0 0 1 -29.69 -15.7)">
	
		<defs>
			<path id="cvfu" d="m38.8 284.1v-4.8c0-0.4 0.1-1.1 0.1-1.1l0.2-0.5v-0.2l0.2-0.4 0.1-0.1 0.1-0.2 0.1-0.1v-0.1l0.2-0.2v-0.1l0.7-0.7 0.2-0.1h0.1l0.3-0.2h0.3l0.6-0.3c0.4-0.1 0.7-0.1 1.1-0.1h94.6v9.2h9v-18.4h-103.6c-7.3 0-13.3 6.1-13.3 13.6v4.8z"/>
		</defs>
		<clipPath id="cvfb">
			<use width="100%" height="100%" xlink:href="#cvfu"/>
		</clipPath>
		<rect class="st0" x="30.2" y="264.7" width="117.1" height="12" clip-path="url(#cvfb)"/>
		
			<linearGradient id="cvfj" x1="-2420" x2="-2400" y1="800.1" y2="800.1" gradientTransform="matrix(.1869 .3575 -.6751 .353 1133 856.1)" gradientUnits="userSpaceOnUse">
			<stop style="stop-color:#737373" offset="0"/>
			<stop style="stop-color:#333" offset="1"/>
		</linearGradient>
		<polygon class="st1" points="133.8 277 147 269.9 150.7 277.1 137.5 284.2" clip-path="url(#cvfb)" style="fill:url(#cvfj)"/>
		
			<linearGradient id="cvfi" x1="-2368" x2="-2347" y1="2163" y2="2163" gradientTransform="matrix(-.1861 .3579 -.5495 -.2858 785 1739)" gradientUnits="userSpaceOnUse">
			<stop style="stop-color:#737373" offset="0"/>
			<stop style="stop-color:#333" offset="1"/>
		</linearGradient>
		<polygon class="st2" points="31.9 271.1 42.6 276.9 38.9 284.1 28.2 278.4" clip-path="url(#cvfb)" style="fill:url(#cvfi)"/>
	
	<rect class="st3" x="47.8" y="284.1" width="80.9" height="9.2"/>
	<rect class="st3" x="47.8" y="358" width="80.9" height="9.2"/>
	
		<defs>
			<path id="cvft" d="m137.7 367.2v4.8c0 0.4-0.1 1.1-0.1 1.1l-0.2 0.5v0.2l-0.2 0.4-0.1 0.1-0.1 0.2-0.1 0.1v0.1l-0.2 0.2v0.1l-0.5 0.5h-0.1l-0.1 0.1-0.2 0.1-0.1 0.1-0.3 0.2h-0.3l-0.5 0.2c-0.4 0.1-0.7 0.1-1.1 0.1h-94.7v-9.2h-9v18.4h103.6c7.3 0 13.3-6.1 13.3-13.6v-4.8h-9z"/>
		</defs>
		<clipPath id="cvfa">
			<use width="100%" height="100%" xlink:href="#cvft"/>
		</clipPath>
		<rect class="st4" x="29.2" y="374.6" width="117.1" height="12" clip-path="url(#cvfa)"/>
		
			<linearGradient id="cvfh" x1="1480" x2="1501" y1="2101" y2="2101" gradientTransform="matrix(-.1869 -.3575 .6751 -.353 -1106 1649)" gradientUnits="userSpaceOnUse">
			<stop style="stop-color:#737373" offset="0"/>
			<stop style="stop-color:#333" offset="1"/>
		</linearGradient>
		<polygon class="st5" points="42.7 374.4 29.5 381.5 25.8 374.2 39 367.1" clip-path="url(#cvfa)" style="fill:url(#cvfh)"/>
		
			<linearGradient id="cvfg" x1="1880" x2="1900" y1="995.7" y2="995.7" gradientTransform="matrix(.1861 -.3579 .5495 .2858 -757.7 765.5)" gradientUnits="userSpaceOnUse">
			<stop style="stop-color:#737373" offset="0"/>
			<stop style="stop-color:#333" offset="1"/>
		</linearGradient>
		<polygon class="st6" points="144.7 380.2 133.9 374.4 137.6 367.2 148.4 372.9" clip-path="url(#cvfa)" style="fill:url(#cvfg)"/>
	
	
		<defs>
			<rect id="cvfs" x="38.8" y="302.6" width="34.6" height="9.2"/>
		</defs>
		<clipPath id="cvff">
			<use width="100%" height="100%" xlink:href="#cvfs"/>
		</clipPath>
		<rect class="st7" x="38.8" y="302.6" width="34.6" height="9.2" clip-path="url(#cvff)"/>
		
			<linearGradient id="cvfr" x1="2724" x2="2762" y1="2480" y2="2480" gradientTransform="matrix(-1.521 -1.021 3.14 1.519 -3559 -659.4)" gradientUnits="userSpaceOnUse">
			<stop style="stop-color:#58595B" offset=".107"/>
			<stop offset="1"/>
		</linearGradient>
		<polygon class="st8" points="69.7 319.2 38.4 302.4 42.1 295 73.5 311.8" clip-path="url(#cvff)" style="fill:url(#cvfr)"/>
	
	
		<defs>
			<rect id="cvfx" x="103.1" y="302.6" width="34.6" height="9.2"/>
		</defs>
		<clipPath id="cvfe">
			<use width="100%" height="100%" xlink:href="#cvfx"/>
		</clipPath>
		<rect class="st9" x="103.1" y="302.6" width="34.6" height="9.2" clip-path="url(#cvfe)"/>
		
			<linearGradient id="cvfq" x1="2370" x2="2408" y1="2242" y2="2242" gradientTransform="matrix(1.521 -1.021 -3.14 1.519 3527 -659.4)" gradientUnits="userSpaceOnUse">
			<stop style="stop-color:#58595B" offset=".107"/>
			<stop offset="1"/>
		</linearGradient>
		<polygon class="st10" points="106.8 319.2 138.2 302.4 134.4 295 103.1 311.8" clip-path="url(#cvfe)" style="fill:url(#cvfq)"/>
	
	
		<defs>
			<rect id="cvfw" x="103.1" y="339.5" width="34.6" height="9.2"/>
		</defs>
		<clipPath id="cvfd">
			<use width="100%" height="100%" xlink:href="#cvfw"/>
		</clipPath>
		<rect class="st11" x="103.1" y="339.5" width="34.6" height="9.2" clip-path="url(#cvfd)"/>
		
			<linearGradient id="cvfp" x1="-2721" x2="-2683" y1="-204.9" y2="-204.9" gradientTransform="matrix(1.521 1.021 -3.14 -1.519 3587 2791)" gradientUnits="userSpaceOnUse">
			<stop style="stop-color:#58595B" offset=".107"/>
			<stop offset="1"/>
		</linearGradient>
		<polygon class="st12" points="106.8 332.1 138.2 348.9 134.4 356.3 103.1 339.5" clip-path="url(#cvfd)" style="fill:url(#cvfp)"/>
	
	
		<defs>
			<rect id="cvfv" x="38.8" y="339.5" width="34.6" height="9.2"/>
		</defs>
		<clipPath id="cvfc">
			<use width="100%" height="100%" xlink:href="#cvfv"/>
		</clipPath>
		<rect class="st13" x="38.8" y="339.5" width="34.6" height="9.2" clip-path="url(#cvfc)"/>
		
			<linearGradient id="cvfo" x1="-2569" x2="-2530" y1="-102.7" y2="-102.7" gradientTransform="matrix(-1.521 1.021 3.14 -1.519 -3500 2791)" gradientUnits="userSpaceOnUse">
			<stop style="stop-color:#58595B" offset=".107"/>
			<stop offset="1"/>
		</linearGradient>
		<polygon class="st14" points="69.7 332.1 38.4 348.9 42.1 356.3 73.5 339.5" clip-path="url(#cvfc)" style="fill:url(#cvfo)"/>
	
	<linearGradient id="cvfn" x1="29.84" x2="73.4" y1="295.5" y2="295.5" gradientUnits="userSpaceOnUse">
		<stop style="stop-color:#A6A8AB" offset=".2373"/>
		<stop style="stop-color:#404040" offset="1"/>
	</linearGradient>
	<polygon class="st15" points="73.4 302.6 73.4 311.8 29.8 288.5 29.8 279.3" style="fill:url(#cvfn)"/>
	
		<linearGradient id="cvfm" x1="-287.9" x2="-244.3" y1="295.5" y2="295.5" gradientTransform="matrix(-1 0 0 1 -141.2 0)" gradientUnits="userSpaceOnUse">
		<stop style="stop-color:#A6A8AB" offset=".2373"/>
		<stop style="stop-color:#404040" offset="1"/>
	</linearGradient>
	<polygon class="st16" points="103.1 302.6 103.1 311.8 146.7 288.5 146.7 279.3" style="fill:url(#cvfm)"/>
	
		<linearGradient id="cvfl" x1="-119.4" x2="-75.84" y1="1846" y2="1846" gradientTransform="rotate(180 13.64 1101)" gradientUnits="userSpaceOnUse">
		<stop style="stop-color:#A6A8AB" offset=".2373"/>
		<stop style="stop-color:#404040" offset="1"/>
	</linearGradient>
	<polygon class="st17" points="103.1 348.8 103.1 339.5 146.7 362.8 146.7 372.1" style="fill:url(#cvfl)"/>
	
		<linearGradient id="cvfk" x1="-138.6" x2="-95.07" y1="1846" y2="1846" gradientTransform="matrix(1 0 0 -1 168.5 2202)" gradientUnits="userSpaceOnUse">
		<stop style="stop-color:#A6A8AB" offset=".2373"/>
		<stop style="stop-color:#404040" offset="1"/>
	</linearGradient>
	<polygon class="st18" points="73.4 348.8 73.4 339.5 29.8 362.8 29.8 372.1" style="fill:url(#cvfk)"/>
	<polygon class="st19" points="103.1 330.3 103.1 330.3 103.1 330.3 103.1 330.3 128.7 344 128.7 334.7 120.4 330.3 146.7 330.3 146.7 321 120.4 321 128.7 316.6 128.7 307.4 103.1 321"/>
	<polygon class="st19" points="47.8 344 73.4 330.3 73.4 330.3 73.4 330.3 73.4 330.3 73.4 321 73.4 321 73.4 321 47.8 307.4 47.8 316.6 56.2 321 29.8 321 29.8 330.3 56.1 330.3 47.8 334.7"/>
</g>
<path class="st20" d="m208.9 257.4h-50.18c-7.368 0-13.34 6-13.34 13.4v90.6h54.76c7.368 0 13.34-6 13.34-13.5v-90.6h-4.58zm107 104.4h-9.061v-90.5c0-3.7 1.494-7.1 3.883-9.5s5.775-3.9 9.459-3.9h54.67v90.5c0 11.8-9.459 13.7-18.62 13.7-1.494 0-3.385-0.1-5.178-0.2-1.095-0.1-2.191-0.1-3.485-0.1v-9c0.8962 0 2.29 0.1 3.784 0.1 1.394 0.1 2.888 0.1 4.779 0.1 4.68 0 9.559-0.6 9.559-4.6v-81.5h-46.2c-0.7966 0.8-1.294 1.9-1.294 3.1m-30.47-12.5h-47.6c-6.87 0-12.55 5.6-12.55 12.6v91.2h9.061v-41.2h43.02c6.87 0 12.55-5.7 12.55-12.6v-50zm-47.6 9.1h43.02v40.8 0.5 1l-0.0996 0.1v0.1l-0.0996 0.1v0.2l-0.1992 0.2-0.0996 0.2-0.1992 0.2-0.1991 0.1-0.1992 0.2h-0.0996l-0.1992 0.1-0.0996 0.1h-0.0996c-0.0996 0-0.1992 0.1-0.2987 0.1h-0.498-0.4979-43.02v-40.8-0.5-0.5l0.0996-0.2v-0.2l0.0996-0.1 0.0996-0.2v-0.1l0.8964-0.9h0.1992l0.0996-0.1h0.0996l0.0996-0.1h1.096c-0.1991-0.2 0-0.3 0.0996-0.3zm43.02 41.4m-0.0996 0.1m0 0.1m0 0.1m0 0.1m0 0.1m-0.0996 0m0 0.1m0 0.1m-0.0996 0.1m0 0.1m-0.0996 0.1m0 0.1m-0.0996 0.2m-0.0996 0.1m-0.0996 0.2m-0.0996 0.1m-0.5974 0.5m-0.0996 0.1m-0.1991 0.1m-0.0996 0.1m-0.2987 0.1m-0.4979 0.2m-0.1992 0m-0.0996 0.1m-43.51-41.3m0-0.1m0.0996-0.2m0-0.1m0.1992-0.5m0.0996-0.3m0.0996-0.1m0-0.1m0.0996-0.1m0.1992-0.3m0.0996 0m0.2987-0.3m0.0996-0.1m0.0996-0.1m0.1992-0.1m0.0996-0.1m0.0996 0m0-0.1m0.1992 0m0.0996-0.1m0.4979-0.2m0.0996 0m0.0996 0m0.0996 0m-80.95-0.2h45.6v81.5c0 0.4-0.0996 1.1-0.0996 1.1l-0.1991 0.5v0.2l-0.1992 0.3-0.0996 0.1-0.0996 0.2-0.3984 0.4v0.1l-0.498 0.5h-0.0996l-0.0996 0.1-0.1992 0.1-0.0996 0.1-0.2987 0.2h-0.2988l-0.4979 0.2c-0.3983 0.1-0.697 0.1-1.095 0.1h-45.7v-81.5c0-0.4 0.0996-1.1 0.0996-1.1l0.1991-0.5v-0.2l0.1992-0.3 0.0996-0.1 0.0996-0.2 0.3984-0.4v-0.1l0.498-0.5h0.0996l0.0996-0.1 0.1991-0.1 0.0996-0.1 0.2987-0.2h0.2988l0.4979-0.2c0.3983-0.1 0.7966-0.1 1.195-0.1zm45.31 83.1m0 0.1m-0.0996 0m-0.1991 0.4m0 0.1m-0.0996 0.2m-0.0996 0.1m-0.0996 0.1m0 0.1m-0.0996 0m-0.0996 0.2m-0.0996 0m-0.0996 0.2m-0.0996 0m-0.1992 0.2m-0.0996 0.1m-0.0996 0.1m-0.0996 0.1m-0.1992 0.1m-0.0996 0m-0.3983 0.2m-0.5974 0.3m-46.5-83m0.0996-0.1m0-0.1m0.1992-0.3m0-0.1m0.0996-0.2m0.0996-0.1m0.0996-0.1m0.0996-0.1m0.1991-0.2m0-0.1m0.1992-0.1m0-0.1m0.1991-0.1m0-0.1m0.0996 0m0.0996-0.1m0.0996-0.1m0.1992-0.1m0.0996 0m0.3983-0.3m0.697-0.2m431.5 22c1.394 0 2.788 0.4 4.082 1.1 1.294 0.7 2.39 1.7 3.087 3.1 0.697 1.3 1.095 2.7 1.095 4.2 0 1.4-0.3983 2.8-1.095 4.1-0.697 1.3-1.792 2.4-3.087 3.1-1.294 0.7-2.688 1.1-4.182 1.1-1.394 0-2.788-0.4-4.182-1.1-1.294-0.7-2.39-1.8-3.087-3.1-0.697-1.3-1.095-2.7-1.095-4.1s0.3983-2.8 1.095-4.2c0.697-1.3 1.792-2.4 3.087-3.1 1.494-0.7 2.888-1.1 4.282-1.1zm0 1.4c-1.195 0-2.29 0.3-3.385 0.9s-1.991 1.5-2.589 2.6c-0.5974 1.1-0.8962 2.3-0.8962 3.5s0.2987 2.4 0.8962 3.5c0.5974 1.1 1.494 2 2.589 2.6s2.29 0.9 3.485 0.9 2.39-0.3 3.485-0.9c1.095-0.6 1.991-1.5 2.589-2.6 0.5974-1.1 0.8962-2.3 0.8962-3.5s-0.2987-2.4-0.8962-3.5c-0.5974-1.1-1.494-2-2.589-2.6-1.294-0.6-2.39-0.9-3.585-0.9zm3.385 9.8c-0.3983-0.8-0.9957-1.4-1.294-1.7-0.1992-0.2-0.3983-0.4-0.7966-0.5 0.7966-0.1 1.394-0.3 1.892-0.8 0.4979-0.5 0.697-1.1 0.697-1.7 0-0.5-0.0996-0.9-0.3983-1.3-0.2987-0.4-0.697-0.7-1.095-0.9-0.4979-0.2-1.195-0.2-2.29-0.2h-3.087v9h1.394v-3.8h0.8962c0.4979 0 0.8962 0.2 1.095 0.4 0.3983 0.3 1.095 1.1 1.394 1.8 0.2987 0.5 0.4979 1.5 0.4979 1.5h1.792c-0.0996-0.1-0.2987-1.1-0.697-1.8zm-3.286-3.3h-1.792v-2.7h1.593c0.697 0 1.195 0.1 1.494 0.2s0.4979 0.3 0.5974 0.5c0.0996 0.2 0.1992 0.4 0.1992 0.7 0 0.4-0.1992 0.7-0.4979 1-0.1992 0.1-0.697 0.3-1.593 0.3z" style="stroke-width:.9979"/>
<path class="st19" d="m418.7 324.3h-14.54v-3c0-2.5-0.0996-4.1-0.3983-4.8-0.2987-0.7-0.9957-1-2.091-1-0.8962 0-1.593 0.3-2.091 0.9-0.4979 0.6-0.697 1.5-0.697 2.8 0 1.7 0.0996 2.9 0.2987 3.7 0.1991 0.8 0.8962 1.6 2.091 2.6 1.095 0.9 3.485 2.3 7.07 4.1 4.779 2.3 7.866 4.6 9.36 6.6 1.494 2.1 2.191 5.1 2.191 9 0 4.4-0.5974 7.8-1.693 10-1.095 2.2-3.087 4-5.676 5.2-2.688 1.2-5.875 1.8-9.659 1.8-4.182 0-7.767-0.7-10.75-2s-4.979-3.1-6.173-5.3c-1.095-2.2-1.693-5.6-1.693-10.1v-2.6h14.64v3.4c0 2.9 0.1991 4.8 0.4979 5.7 0.3983 0.9 1.095 1.3 2.191 1.3 1.195 0 1.991-0.3 2.39-0.9 0.4979-0.6 0.697-1.8 0.697-3.7 0-2.6-0.2987-4.2-0.8962-4.9-0.5974-0.7-3.784-2.6-9.559-5.8-4.779-2.7-7.767-5.2-8.862-7.4s-1.593-4.9-1.593-7.9c0-4.3 0.5974-7.5 1.693-9.6 1.095-2.1 3.087-3.7 5.775-4.8 2.688-1.1 5.875-1.7 9.459-1.7s6.671 0.5 9.161 1.4 4.481 2.1 5.775 3.6 2.191 2.9 2.39 4.2c0.2987 1.3 0.3983 3.3 0.3983 6v3.2zm43.02 10.7h-21.41v11.8c0 2.5 0.1992 4 0.4979 4.8 0.3983 0.7 0.9957 1.1 2.091 1.1 1.294 0 2.091-0.5 2.489-1.4 0.3983-1 0.5974-2.8 0.5974-5.5v-6.8h15.63v3.7c0 3.4-0.1991 5.9-0.5974 7.7s-1.394 3.7-2.987 5.8c-1.494 2.1-3.485 3.6-5.875 4.6s-5.377 1.5-8.962 1.5c-3.485 0-6.572-0.5-9.26-1.5-2.688-1-4.68-2.4-6.174-4.1-1.494-1.8-2.489-3.7-3.087-5.8-0.5974-2.1-0.8962-5.2-0.8962-9.2v-15.8c0-4.7 0.5974-8.5 1.892-11.2s3.385-4.8 6.273-6.3 6.273-2.2 10.06-2.2c4.58 0 8.464 0.9 11.45 2.6 2.987 1.8 5.078 4.1 6.373 7 1.195 2.9 1.792 7 1.792 12.2v7zm-16.43-8.8v-4c0-2.8-0.1992-4.6-0.4979-5.4-0.2987-0.8-0.8962-1.2-1.892-1.2-1.195 0-1.892 0.4-2.191 1-0.2987 0.7-0.3983 2.6-0.3983 5.6v4zm38.43-19.3-0.2987 4.1c1.693-2 2.489-2.7 4.182-3.7s3.883-1.4 6.173-1.4c2.788 0 5.078 0.7 6.97 2 1.792 1.3 2.987 3 3.485 5.1 0.4979 2 0.7966 5.4 0.7966 10.2v38.1h-16.43v-37.6c0-3.7-0.0996-6-0.3983-6.8-0.1991-0.8-0.8962-1.2-2.091-1.2s-1.892 0.5-2.191 1.4c-0.2987 1-0.3983 3.5-0.3983 7.6v36.7h-16.43v-54.3h16.63zm60.54 17.4h-14.54v-3c0-2.5-0.0996-4.1-0.3983-4.8-0.2987-0.7-0.9957-1-2.091-1-0.8962 0-1.593 0.3-2.091 0.9s-0.697 1.5-0.697 2.8c0 1.7 0.0996 2.9 0.2987 3.7 0.1991 0.8 0.8962 1.6 2.091 2.6 1.095 0.9 3.485 2.3 7.07 4.1 4.779 2.3 7.866 4.6 9.36 6.6 1.494 2.1 2.191 5.1 2.191 9 0 4.4-0.5974 7.8-1.693 10s-3.087 4-5.676 5.2c-2.688 1.2-5.875 1.8-9.659 1.8-4.182 0-7.767-0.7-10.75-2-2.987-1.3-4.979-3.1-6.173-5.3-1.095-2.2-1.693-5.6-1.693-10.1v-2.6h14.64v3.4c0 2.9 0.1992 4.8 0.4979 5.7 0.3983 0.9 1.095 1.3 2.191 1.3 1.195 0 1.991-0.3 2.39-0.9 0.4979-0.6 0.697-1.8 0.697-3.7 0-2.6-0.2987-4.2-0.8962-4.9-0.5974-0.7-3.784-2.6-9.559-5.8-4.779-2.7-7.767-5.2-8.862-7.4-1.095-2.2-1.593-4.9-1.593-7.9 0-4.3 0.5974-7.5 1.693-9.6 1.095-2.1 3.087-3.7 5.775-4.8s5.875-1.7 9.459-1.7c3.585 0 6.671 0.5 9.161 1.4s4.481 2.1 5.775 3.6c1.294 1.5 2.191 2.9 2.39 4.2 0.2987 1.3 0.3983 3.3 0.3983 6v3.2zm42.92 10.7h-21.31v11.8c0 2.5 0.1991 4 0.4979 4.8 0.3983 0.7 0.9957 1.1 2.091 1.1 1.294 0 2.091-0.5 2.489-1.4 0.3983-1 0.5974-2.8 0.5974-5.5v-6.8h15.63v3.7c0 3.4-0.1992 5.9-0.5974 7.7s-1.394 3.7-2.987 5.8c-1.494 2.1-3.485 3.6-5.875 4.6s-5.377 1.5-8.962 1.5c-3.485 0-6.572-0.5-9.26-1.5s-4.68-2.4-6.173-4.1c-1.494-1.8-2.489-3.7-3.087-5.8s-0.8962-5.2-0.8962-9.2v-15.8c0-4.7 0.5974-8.5 1.892-11.2 1.294-2.7 3.385-4.8 6.273-6.3s6.273-2.2 10.06-2.2c4.58 0 8.464 0.9 11.45 2.6 2.987 1.8 5.078 4.1 6.373 7 1.195 2.9 1.792 7 1.792 12.2zm-16.43-8.8v-4c0-2.8-0.1992-4.6-0.4979-5.4-0.2987-0.8-0.8962-1.2-1.892-1.2-1.195 0-1.892 0.4-2.191 1-0.2987 0.7-0.3983 2.6-0.3983 5.6v4z" style="stroke-width:.9979"/>
</svg>
